<?xml version="1.0" encoding="iso-8859-1"?>
<!-- Generator: Adobe Illustrator 18.0.0, SVG Export Plug-In . SVG Version: 6.00 Build 0)  -->
<!DOCTYPE svg PUBLIC "-//W3C//DTD SVG 1.1//EN" "http://www.w3.org/Graphics/SVG/1.1/DTD/svg11.dtd">
<svg version="1.1" id="Capa_1" xmlns="http://www.w3.org/2000/svg" xmlns:xlink="http://www.w3.org/1999/xlink" x="0px" y="0px"
	 viewBox="0 0 455.885 455.885" style="enable-background:new 0 0 455.885 455.885;" xml:space="preserve">
<g id="XMLID_4_">
	<path id="XMLID_5_" d="M445.319,268.282c-23.536,0-60.354,14.135-77.955,34.354c-23.834-20.916-75.513-38.657-123.127-50.092
		c-17.319-26.133-18.825-46.286-17.214-58.239c0.43-3.19-0.713-6.389-3.058-8.584c-2.353-2.197-5.617-3.125-8.764-2.486
		c-31.052,6.263-48.126,33.657-57.045,55.591c-0.386-0.008-0.839-0.029-1.21-0.029c-48.111,0-117.503,38.999-117.503,87.11
		c0,48.111,69.392,87.11,117.503,87.11c1.603,0,3.369-0.051,5.254-0.133c17.363,9.357,37.679,15.107,52.645,15.107
		c18.38,0,9.387-8.636-1.477-22.044c54.018-10.344,124.856-31.203,153.995-56.779c17.608,20.228,54.419,34.355,77.955,34.355
		c31.816,0-18.365-25.8-18.365-57.624C426.955,294.081,477.136,268.282,445.319,268.282z M93.27,326.899
		c-7.346,0-13.296-5.951-13.296-13.296s5.951-13.297,13.296-13.297c7.346,0,13.297,5.951,13.297,13.297
		S100.616,326.899,93.27,326.899z"/>
	<path id="XMLID_8_" d="M16.458,248.389C7.369,248.389,0,255.757,0,264.846c0,9.096,7.369,16.465,16.458,16.465
		c9.097,0,16.465-7.369,16.465-16.465C32.923,255.757,25.554,248.389,16.458,248.389z"/>
	<path id="XMLID_9_" d="M52.015,196.471c-6.946,0-12.57,5.624-12.57,12.569c0,6.946,5.624,12.57,12.57,12.57
		c6.944,0,12.569-5.624,12.569-12.57C64.584,202.095,58.959,196.471,52.015,196.471z"/>
	<path id="XMLID_10_" d="M28.493,149.613c12.244,0,22.163-9.92,22.163-22.156c0-12.243-9.92-22.164-22.163-22.164
		c-12.236,0-22.156,9.921-22.156,22.164C6.337,139.693,16.257,149.613,28.493,149.613z"/>
	<path id="XMLID_11_" d="M63.397,53.369c7.034,0,12.733-5.699,12.733-12.74c0-7.034-5.699-12.732-12.733-12.732
		c-7.042,0-12.74,5.698-12.74,12.732C50.657,47.67,56.355,53.369,63.397,53.369z"/>
</g>
<g>
</g>
<g>
</g>
<g>
</g>
<g>
</g>
<g>
</g>
<g>
</g>
<g>
</g>
<g>
</g>
<g>
</g>
<g>
</g>
<g>
</g>
<g>
</g>
<g>
</g>
<g>
</g>
<g>
</g>
</svg>
